<svg xmlns="http://www.w3.org/2000/svg" viewBox="0 0 64 64" width="64" height="64">
  <rect width="64" height="64" fill="#0f0e11"/>
  <g transform="translate(5.097,48.713) scale(0.04643,-0.04643)">
    <path d="M270 -10Q163 -10 102.0 49.5Q41 109 41 212H140Q140 148 174.5 113.0Q209 78 270 78Q331 78 365.5 113.0Q400 148 400 211V730H499V211Q499 109 437.5 49.5Q376 -10 270 -10Z" fill="#e0def4"/>
    <g transform="translate(600,0)"><path d="M88 0V730H284Q355 730 407.5 702.5Q460 675 489.0 625.5Q518 576 518 509V222Q518 155 489.0 105.0Q460 55 407.5 27.5Q355 0 284 0ZM187 88H284Q347 88 383.0 124.0Q419 160 419 222V509Q419 571 383.0 606.5Q347 642 284 642H187Z" fill="#9ccfd8"/></g>
  </g>
</svg>
